<?xml version="1.0" encoding="UTF-8"?>
<svg id="Layer_1" xmlns="http://www.w3.org/2000/svg" version="1.1" viewBox="0 0 512 512">
  <!-- Generator: Adobe Illustrator 30.1.0, SVG Export Plug-In . SVG Version: 2.1.1 Build 136)  -->
  <defs>
    <style>
      .st0 {
        fill: #a74a26;
      }
    </style>
  </defs>
  <g id="_01_align_center">
    <path class="st0" d="M448,21.33H64C28.65,21.33,0,49.99,0,85.33v405.33h512V85.33c0-35.35-28.65-64-64-64ZM64,64h384c11.78,0,21.33,9.55,21.33,21.33v14.23l-168.06,168.09c-25.03,24.93-65.51,24.93-90.54,0L42.67,99.56v-14.23c0-11.78,9.55-21.33,21.33-21.33ZM42.67,448V160l137.9,137.81c41.69,41.59,109.18,41.59,150.87,0l137.9-137.81v288H42.67Z"/>
  </g>
</svg>