<?xml version="1.0" encoding="UTF-8"?>
<svg id="Layer_1" xmlns="http://www.w3.org/2000/svg" version="1.1" viewBox="0 0 512 512">
  <!-- Generator: Adobe Illustrator 30.1.0, SVG Export Plug-In . SVG Version: 2.1.1 Build 136)  -->
  <defs>
    <style>
      .st0 {
        fill: #a74a26;
      }
    </style>
  </defs>
  <path class="st0" d="M40.09,381.4c-18.54,25.59-31.84,54.59-39.15,85.33-4.56,19.98,7.94,39.86,27.92,44.42,5.44,1.24,11.08,1.24,16.52,0,30.7-7.32,59.65-20.61,85.21-39.13h0c25.03-24.99,25.05-65.53.06-90.56-24.99-25.03-65.53-25.05-90.56-.06ZM100.42,441.75h0c-17.19,11.01-35.87,19.52-55.47,25.26,5.75-19.59,14.25-38.27,25.26-55.47,8.47-8.19,21.98-7.95,30.17.52,7.98,8.27,7.98,21.37,0,29.64l.04.04ZM384,181.33c0,29.46-23.88,53.33-53.33,53.33s-53.33-23.88-53.33-53.33,23.88-53.33,53.33-53.33,53.33,23.88,53.33,53.33ZM447.4,0h0c-102.9-.61-200.22,46.76-263.21,128.13-33.9,1.17-67.14,9.63-97.47,24.81-35.17,16.2-63.89,43.74-81.54,78.21-8.41,19.54-6.41,42,5.33,59.73,11.85,18.17,32.09,29.13,53.78,29.12h53.03c41.15.2,74.47,33.51,74.67,74.67v53.03c-.02,21.69,10.92,41.92,29.08,53.78,17.74,11.74,40.2,13.75,59.73,5.33,34.47-17.65,62.01-46.36,78.21-81.54,15.18-30.33,23.64-63.58,24.81-97.47,81.5-63.16,128.89-160.7,128.17-263.81C511.89,28.55,483.07-.11,447.62,0c-.07,0-.14,0-.21,0ZM92.71,277.33h-28.42c-7.33.06-14.18-3.66-18.13-9.83-3.88-5.74-4.57-13.06-1.81-19.41,13.75-25.19,35.34-45.21,61.5-57,13.52-6.78,27.79-11.93,42.52-15.36-21.2,32.35-39.82,66.33-55.66,101.61ZM320.98,406.14c-11.8,26.16-31.8,47.75-56.98,61.5-6.36,2.76-13.69,2.07-19.43-1.81-6.18-3.95-9.89-10.8-9.83-18.13v-28.42c35.29-15.84,69.26-34.45,101.61-55.66-3.45,14.73-8.62,29-15.42,42.52h.06ZM323.86,320.38c-28.87,20.05-59.34,37.68-91.11,52.71-8.88-47.68-46.18-84.99-93.87-93.87,15.04-31.74,32.68-62.19,52.74-91.03C263.47,87.98,337.92,45.8,448,42.67c11.55,0,21.01,9.19,21.33,20.74-3.14,110.68-45.31,185.13-145.54,256.98h.06Z"/>
</svg>